<svg width="18" height="18" viewBox="0 0 18 18" fill="none" xmlns="http://www.w3.org/2000/svg">
<path d="M6.46885 12.9375H6.20265C5.95367 12.9375 5.72529 12.7817 5.65108 12.544C5.56122 12.2562 5.71165 11.9552 5.9858 11.8501L10.2051 10.2273C10.5015 10.1133 10.6438 9.77734 10.5215 9.48431C8.85706 5.4953 8.44056 0.574953 8.43585 0.517085C8.39299 -0.0121587 7.7033 -0.193144 7.40717 0.250248L6.59401 1.46982L5.37479 0.657008C5.05209 0.441604 4.61122 0.610847 4.51697 0.988532L4.14783 2.46405L3.12478 1.78201C2.80208 1.56661 2.36122 1.73585 2.26696 2.11354L1.89782 3.58905L0.874773 2.90702C0.485029 2.64717 -0.0348626 2.95145 0.00184062 3.41854C0.0130907 3.56444 0.291177 7.03472 1.34622 10.5672C1.97482 12.6713 2.75177 14.356 3.65529 15.5753C4.2893 16.4299 5.26109 16.875 6.24287 16.875H6.439C7.51943 16.875 8.42098 16.017 8.4374 14.9367C8.4541 13.8372 7.5646 12.9375 6.46885 12.9375ZM2.85267 6.95879C2.73736 6.6705 2.87763 6.3432 3.16626 6.22753L5.97877 5.10253C6.26705 4.98722 6.59436 5.12749 6.71002 5.41613C6.82534 5.70441 6.68506 6.03171 6.39643 6.14738C3.35062 7.36569 3.53038 7.31246 3.37509 7.31246C3.1522 7.31246 2.94091 7.17887 2.85267 6.95879ZM4.14642 9.52239C3.86218 9.63608 3.53217 9.50063 3.41517 9.20879C3.29986 8.92051 3.44013 8.59321 3.72877 8.47754L6.54127 7.35254C6.82956 7.23723 7.15686 7.3775 7.27253 7.66613C7.38784 7.95441 7.24756 8.28172 6.95893 8.39739L4.14642 9.52239ZM15.1876 9.56247C15.0407 9.56247 15.3313 9.46723 11.2645 11.0313C11.2596 11.0231 8.54385 12.0715 8.54846 12.0697C8.34842 12.1467 8.30556 12.4089 8.46893 12.5476C10.1806 14.0011 9.82505 16.7291 7.80015 17.6985C7.64898 17.7709 7.69964 17.9997 7.86723 18C8.33435 18.0008 8.7826 17.8868 9.17449 17.6822L15.24 15.1847C15.3553 15.1741 15.4608 15.1288 15.5452 15.0592C17.189 14.3826 17.1118 14.4324 17.2235 14.3156C18.9228 12.5341 17.6498 9.56247 15.1876 9.56247Z" fill="#F28022"/>
</svg>
